<?xml version="1.0" standalone="no"?>
<!DOCTYPE svg PUBLIC "-//W3C//DTD SVG 20010904//EN"
 "http://www.w3.org/TR/2001/REC-SVG-20010904/DTD/svg10.dtd">
<svg version="1.0" xmlns="http://www.w3.org/2000/svg"
 width="640.000000pt" height="640.000000pt" viewBox="0 0 640.000000 640.000000"
 preserveAspectRatio="xMidYMid meet">
<metadata>
Created by potrace 1.11, written by Peter Selinger 2001-2013
</metadata>
<g transform="translate(0.000000,640.000000) scale(0.100000,-0.100000)"
fill="#000000" stroke="none">
<path d="M4534 4976 c-122 -63 -254 -135 -312 -171 -10 -6 -48 -29 -87 -52
-107 -64 -126 -78 -117 -89 5 -5 25 -56 46 -114 21 -58 52 -145 71 -195 18
-49 52 -142 75 -205 23 -63 45 -124 50 -135 5 -11 23 -60 40 -110 47 -132 110
-307 120 -330 5 -11 25 -67 46 -125 20 -58 40 -109 44 -113 8 -9 221 79 232
96 3 6 3 17 -2 26 -4 9 -18 50 -30 91 -12 41 -26 86 -31 100 -21 63 -99 329
-99 337 0 9 52 26 300 99 46 14 86 27 89 29 2 3 -13 65 -34 138 l-37 134 -137
-52 c-75 -29 -165 -64 -200 -79 -35 -14 -65 -25 -66 -23 -13 16 -135 329 -135
346 0 5 28 21 63 36 34 16 107 50 162 75 55 26 130 61 167 78 68 31 74 40 48
77 -4 6 -27 46 -50 90 -51 96 -63 115 -70 115 -3 0 -69 -33 -146 -74z"/>
<path d="M5173 4803 c-9 -32 -18 -62 -19 -68 -1 -5 -9 -31 -17 -57 l-15 -48
32 -8 c17 -5 185 -47 374 -93 246 -60 341 -87 338 -96 -4 -9 -196 -266 -239
-318 -23 -29 -227 -298 -227 -301 0 -5 191 -136 194 -132 2 1 16 21 32 43 16
23 35 47 42 55 7 8 103 137 213 285 111 149 214 286 229 305 23 28 28 42 25
75 -2 22 -6 69 -9 104 -4 36 -8 66 -10 68 -5 5 -899 243 -913 243 -7 0 -20
-26 -30 -57z"/>
<path d="M3531 4630 c-73 -33 -135 -61 -138 -63 -2 -3 1 -15 6 -28 5 -13 64
-193 131 -399 147 -452 152 -468 252 -723 32 -81 31 -92 -12 -101 -23 -5 -31
5 -110 140 -47 80 -140 221 -208 312 -67 92 -155 212 -195 267 -39 55 -76 105
-82 111 -5 7 -48 64 -95 129 -47 64 -94 128 -106 142 l-21 24 -69 -32 c-60
-28 -372 -195 -383 -205 -2 -2 41 -122 96 -266 56 -145 124 -337 153 -428 83
-264 222 -684 230 -693 6 -7 233 83 248 97 2 3 -108 321 -189 546 -11 30 -31
89 -45 130 -14 41 -29 84 -34 95 -5 11 -17 45 -28 75 -11 30 -42 116 -70 190
-69 186 -67 175 -36 189 15 6 28 10 29 9 1 -2 39 -64 85 -138 45 -74 128 -198
184 -275 163 -226 253 -348 280 -381 14 -18 26 -36 26 -42 0 -6 3 -12 8 -14 4
-1 32 -37 61 -78 30 -41 73 -100 95 -130 22 -30 42 -57 43 -59 4 -6 208 82
335 145 83 42 106 58 103 71 -7 40 -18 79 -24 88 -3 6 -6 15 -7 20 -1 6 -18
64 -39 130 -70 228 -88 291 -162 575 -40 157 -75 292 -78 300 -2 8 -11 42 -20
75 -8 33 -19 71 -24 85 -5 14 -19 58 -31 98 -12 39 -22 72 -23 72 -1 0 -62
-27 -136 -60z"/>
<path d="M1865 4035 c-71 -12 -188 -37 -260 -54 -122 -29 -445 -120 -454 -128
-4 -3 38 -263 45 -274 2 -4 52 9 111 28 230 73 476 130 645 148 l56 6 20 -54
c24 -62 36 -134 34 -197 -3 -79 -8 -92 -50 -113 -15 -8 -81 -44 -147 -80
l-119 -66 -44 122 c-24 67 -50 141 -59 165 -8 23 -19 42 -24 42 -5 0 -44 -19
-86 -43 -43 -23 -95 -51 -115 -62 -21 -11 -38 -22 -38 -26 0 -6 65 -182 267
-724 64 -170 120 -320 124 -332 l8 -23 53 20 c29 12 67 27 83 34 17 8 64 28
105 46 222 97 405 192 462 242 35 30 47 84 42 190 -4 100 -24 196 -57 272 -9
21 -17 41 -17 45 0 3 -8 16 -18 28 -13 17 -32 23 -87 28 -118 10 -170 17 -177
22 -5 2 13 20 40 40 75 57 101 84 113 121 28 85 6 340 -36 422 -20 39 -120
126 -179 155 -59 30 -73 30 -241 0z m310 -907 c25 -37 54 -144 59 -219 l5 -69
-57 -33 c-85 -50 -213 -109 -226 -104 -6 3 -24 45 -40 93 -16 49 -32 94 -36
99 -10 15 -62 176 -59 179 6 5 301 74 321 75 9 1 24 -9 33 -21z"/>
<path d="M562 3034 l-272 -365 5 -47 c3 -26 7 -71 10 -101 2 -30 6 -56 8 -58
5 -4 852 -232 893 -239 30 -6 31 -5 48 52 10 33 26 84 36 114 12 39 14 57 6
61 -6 4 -174 46 -373 95 -328 80 -390 100 -355 116 4 2 33 38 66 82 32 43 65
86 72 95 7 9 27 34 43 56 17 22 34 45 39 50 4 6 18 26 32 45 13 19 27 37 30
40 7 6 127 164 158 207 l22 31 -94 66 c-52 36 -96 66 -98 66 -2 0 -126 -165
-276 -366z"/>
</g>
</svg>
